<svg width="32" height="36" viewBox="0 0 32 36" fill="none" xmlns="http://www.w3.org/2000/svg">
<g clip-path="url(#clip0_1891_4794)">
<path d="M13.8801 15.368H17.2553L15.6403 10.4976H15.6216L13.8816 15.368H13.8801Z" fill="#DA2128"/>
<path d="M0.359131 26.7922V9.20629L15.6315 0.414062L30.9039 9.20629V26.7922L15.6315 35.5858L0.359131 26.7922Z" fill="#DA2128"/>
<path d="M15.6316 0.826779L30.5447 9.41267V26.5845L15.6316 35.1704L0.718429 26.5859V9.41411L15.6316 0.826779ZM15.6316 0L15.2724 0.206337L0.359215 8.79366L0 9V27L0.359215 27.2063L15.2724 35.7922L15.6316 35.9986L15.9908 35.7922L30.9039 27.2063L31.2632 27V9L30.9039 8.79366L15.9908 0.206337L15.6316 0Z" fill="#231F20"/>
<path d="M4.2876 24.5195L15.6244 31.032L26.9124 24.5195V11.4572L15.6302 4.96191L4.2876 11.493V24.5195Z" fill="white"/>
<path d="M5.31339 23.5323L5.1266 23.9965L5.12085 24.2344L5.26741 24.5754L5.79761 25.3879L6.14964 25.5899L6.12378 25.5598L5.42977 24.498L5.30046 24.1971V24.0467L5.47575 23.6082L5.79474 23.015L7.60661 20.5776H7.3839L5.64387 22.919L5.31339 23.5323Z" fill="#E6E6E6"/>
<path d="M4.40252 22.4805L4.28613 22.5951V22.8488L4.53471 22.6023L5.98594 20.8728L6.16267 20.5776H5.95432L5.83938 20.7682L4.40252 22.4805Z" fill="#E6E6E6"/>
<path d="M4.28613 21.1651L4.4916 20.8599L4.61517 20.5776H4.30338L4.28613 20.6149V21.1651Z" fill="#E6E6E6"/>
<path d="M19.3098 27.7651L18.7006 26.6861L18.189 25.5255L17.8916 25.2202L17.5453 25.0196L16.9936 24.915L16.3312 24.9623L15.8599 25.1457L15.3728 25.0942L14.492 25.428L13.7951 26.1631L13.2578 27.3868L12.877 28.2236L11.7993 28.4156L11.249 28.5188L11.4904 28.6578L13.0006 28.3841L13.4216 27.4599L13.9374 26.2749L14.594 25.5813L15.3972 25.2761L15.8843 25.3291L16.3585 25.14L16.985 25.0956L17.4706 25.183L17.7724 25.3549L18.031 25.6143L18.5411 26.7663L19.1402 27.8267L19.2753 28.2723L19.3443 28.8856L19.5138 28.7881L19.4535 28.2451L19.3098 27.7651Z" fill="#E6E6E6"/>
<path d="M23.0688 21.0261L23.6277 21.6308L24.0286 21.9317L24.576 22.032L26.2097 21.8443L26.9109 21.8887V21.7139L26.2054 21.6652L24.5818 21.85L24.1033 21.7641L23.7541 21.5033L23.2067 20.9115L22.9553 20.5776H22.7512L22.7728 20.6292L23.0688 21.0261Z" fill="#E6E6E6"/>
<path d="M20.1951 27.6276L19.3531 26.1761L18.5542 24.3764L18.1505 23.9164L17.5211 23.723L16.8429 23.6729H16.0986L15.6072 23.8161L15.077 24.1013L13.4261 25.5987L13.0884 26.1002L12.4461 27.1533L12.1846 27.3511L11.8757 27.4829L10.1443 27.8841L10.3727 28.0159L11.9246 27.6563L12.2651 27.5116L12.5683 27.2866L13.2393 26.1962L13.5554 25.7233L15.1733 24.2532L15.6676 23.9838L16.1116 23.852H16.8372L17.478 23.8964L18.0499 24.0726L18.3962 24.4609L19.1936 26.2578L20.0256 27.6864L20.1132 27.9902L20.1793 28.4043L20.3445 28.3083L20.2885 27.9515L20.1951 27.6276Z" fill="#E6E6E6"/>
<path d="M16.9866 29.0274L16.8056 28.6176L16.4262 28.639L15.7107 28.2837L14.5985 29.5389L14.3284 29.8069L13.9793 29.9817L13.8672 30.0232L14.0669 30.1379L14.4218 29.9602L14.7293 29.6607L15.7538 28.5058L16.3889 28.821L16.6921 28.8038L16.8056 29.0618L16.7596 30.155V30.1622L16.7854 30.3628L16.9536 30.2654L16.9406 30.155L16.9866 29.0274Z" fill="#E6E6E6"/>
<path d="M18.0125 27.7493L17.7093 26.7477L16.863 26.3608L16.4851 26.2505L15.9132 26.3551L15.5167 26.6015L14.9333 27.2707L14.0683 27.9786L13.5755 28.897L13.2551 29.0962L12.5496 29.2653L12.9102 29.4731L13.3671 29.3642L13.7924 29.0991L14.2953 28.1634L15.1258 27.4842L15.6877 26.8322L16.0181 26.6273L16.4707 26.5457L16.7538 26.6259L17.4722 26.954L17.7337 27.8209L17.8702 28.4586L17.9119 29.7124L18.195 29.549L18.1576 28.4356L18.0125 27.7493Z" fill="#E6E6E6"/>
<path d="M7.37527 22.5808L7.17124 23.0809L6.98732 23.8633L6.7373 24.4536L6.83501 25.0912L7.05629 25.5985L8.07933 26.0742L8.96443 26.1L9.73603 26.6703L10.5162 26.7663L11.5752 26.6717L12.1068 26.378L12.433 26.1459L13.3325 25.064L13.6946 24.6557L14.5222 23.9664L15.3527 23.4606L15.982 23.2357L16.7177 23.0981L17.7293 23.005L18.4592 23.0508L18.8888 23.2213L19.2868 23.7529L19.4664 24.1097L19.8831 25.4953L20.8645 27.0371L21.2093 27.8094L21.3645 27.7206L21.0225 26.9526L20.0512 25.4323L19.636 24.051L19.4434 23.6655L19.0009 23.0737L18.5124 22.8789L17.7264 22.8258L16.6933 22.9204L15.9346 23.0637L15.2837 23.2958L14.4173 23.8217L13.5696 24.5281L13.196 24.948L12.3181 26.0069L12.0106 26.2261L11.522 26.4969L10.5191 26.5858L9.805 26.4983L9.02622 25.9223L8.121 25.8951L7.19279 25.4638L7.01174 25.0526L6.92266 24.4765L7.15543 23.9249L7.34222 23.1354L7.52327 22.6826L8.58654 21.3457L8.99605 20.5776H8.79201L8.43998 21.2411L7.37527 22.5808Z" fill="#E6E6E6"/>
<path d="M9.64551 21.4832L8.76472 22.9147L8.56931 23.5394L8.51758 24.0381L8.61528 24.3791L8.8107 24.7244L9.06358 25.0296L9.45297 25.2245L10.0723 25.3305L10.7562 24.8863L11.0608 24.5969L11.8884 24.9236L12.9029 23.9607L13.867 23.1812L15.4849 22.6381L16.2206 22.363L16.9433 22.2727H17.8212L18.9247 22.3645L19.5024 22.5851L19.9938 23.0293L20.3559 23.4721L20.7668 24.5181L20.8602 25.0354L22.458 27.0887L22.616 26.9984L21.0297 24.9609L20.9421 24.478L20.5182 23.3933L20.1231 22.9061L19.6116 22.4418L18.9779 22.1925L17.8284 22.0936H16.9318L16.1875 22.1868L15.4246 22.4691L13.7952 23.0164L12.7836 23.826L11.8482 24.7144L11.0206 24.3877L10.6499 24.7416L10.032 25.1428L9.52194 25.0583L9.17853 24.8863L8.963 24.6284L8.78627 24.3204L8.70006 24.0223L8.7446 23.5838L8.92421 22.9992L9.80357 21.5692L10.0435 20.9516L10.0981 20.5776H9.91708L9.87254 20.8972L9.64551 21.4832Z" fill="#E6E6E6"/>
<path d="M21.392 21.5821L22.0385 22.3186L22.8719 23.7042L23.2627 24.051L23.5516 24.1713L23.8619 24.0682L24.8462 23.5093L25.7241 23.1411L26.3089 23.005L26.806 22.9605L26.9109 22.9863V22.8029L26.8204 22.7786L26.2802 22.8287L25.6752 22.9677L24.7671 23.3489L23.7973 23.9019L23.5573 23.9808L23.3691 23.9062L23.0185 23.601L22.188 22.2197L21.5184 21.456L20.6347 20.6665L20.4336 20.5776H19.9939L20.5255 20.8098L21.392 21.5821Z" fill="#E6E6E6"/>
<path d="M10.9818 21.3571L10.851 21.7913L10.6815 22.0865L9.90556 22.8989L9.84665 23.1325L9.79492 23.4463L9.91274 23.8002L10.1628 23.9879L10.5033 24.0438L10.772 23.9894L11.3338 23.8346L12.1427 23.121L13.4374 22.108L14.5351 21.5147L15.2593 21.2439L15.9835 21.1078L16.7105 21.0634L17.5769 21.1078L19.4305 21.3385L19.7682 21.423L20.0627 21.6322L20.6978 22.2656L21.2007 22.8588L22.4177 24.958L22.81 25.3005L23.1189 25.5584L23.4666 25.6157L23.8689 25.5154L25.7599 24.3447L26.1018 24.2172L26.4337 24.1756L26.8016 24.2573L26.9108 24.3289V23.9879L26.4467 23.8848L26.0501 23.9349L25.6449 24.0811L23.777 25.2431L23.4551 25.3234L23.2439 25.2876L22.9968 25.0827L22.6419 24.7731L21.4435 22.704L20.909 22.0721L20.2567 21.4216L19.8903 21.158L19.4923 21.0591L17.6028 20.8227L16.7091 20.7754L15.9562 20.8227L15.1932 20.9645L14.4245 21.2497L13.2894 21.8615L11.9588 22.9004L11.193 23.5752L10.7059 23.7114L10.499 23.7529L10.2791 23.7171L10.157 23.6254L10.0895 23.4219L10.1283 23.1898L10.1656 23.0408L10.9013 22.2713L11.1082 21.9188L11.2605 21.4245L11.3137 20.7797V20.5776H11.0263V20.7682L10.9818 21.3571Z" fill="#E6E6E6"/>
<mask id="mask0_1891_4794" style="mask-type:luminance" maskUnits="userSpaceOnUse" x="5" y="5" width="22" height="26">
<path d="M5.16699 24.0238L15.6316 30.0491L26.0948 24.0238V11.9746L15.6316 5.95068L5.16699 11.9746V24.0238Z" fill="white"/>
</mask>
<g mask="url(#mask0_1891_4794)">
<path d="M22.4624 9.61152C21.9724 8.98105 21.0298 8.1643 19.4565 7.96083C17.8831 7.75736 16.8198 8.46091 16.2192 8.94093L19.3775 9.60006L22.4638 9.61152H22.4624Z" fill="#C7DFF4"/>
<path d="M14.3342 7.4478C12.9361 7.49078 10.2607 8.09976 9.09106 9.37074L15.396 10.3308C16.5986 9.79058 17.9823 9.25181 19.7569 9.80061C18.5973 8.82051 16.8314 7.37042 14.3342 7.4478Z" fill="#8FC3EA"/>
<path d="M17.0974 12.0218C17.402 11.5905 18.1836 11.1019 18.7325 11.0217C17.0758 9.06289 14.5354 8.2619 10.9361 8.64305C7.06809 9.05143 4.89844 10.3396 4.89844 12.5935C4.89844 12.946 4.94873 13.0478 5.09098 13.3745C8.7406 12.4073 12.4721 11.8714 17.0974 12.0218Z" fill="#2778AE"/>
<path d="M20.9207 8.87113C19.958 8.97144 18.8962 9.53027 18.3042 10.0103C19.0154 10.1306 19.7684 10.5705 20.2095 11.2598C21.9394 11.8301 24.1364 11.6911 26.8003 10.7654C27.5719 10.4975 28.2961 10.1808 28.9599 9.82974C27.8018 8.11743 24.9956 8.447 20.9207 8.8697V8.87113Z" fill="#8FC3EA"/>
<path d="M27.164 13.6695C28.1856 12.5433 28.4744 11.3583 28.1209 10.3467C27.3781 8.21739 26.6209 8.57275 22.2945 9.67035C21.1522 9.95979 19.2972 11.1305 18.5989 12.0962C21.6996 12.3126 24.6207 12.8757 27.164 13.6695Z" fill="#2778AE"/>
</g>
<path d="M3.67694 10.0988C3.67694 10.0988 3.93845 10.1532 4.13817 10.0386C4.20426 9.99989 4.24881 9.94687 4.21289 9.88526C4.16691 9.80645 4.06058 9.84657 3.87379 9.8695C3.63958 9.90245 3.36514 9.90532 3.2114 9.64023C3.04759 9.35652 3.1841 9.04272 3.51601 8.85071C3.82781 8.6716 4.09937 8.72462 4.09937 8.72462L4.15685 9.15305C4.15685 9.15305 3.91833 9.1158 3.73585 9.2204C3.66688 9.26052 3.61803 9.31067 3.65538 9.37372C3.69705 9.44679 3.79476 9.41241 3.94276 9.39091C4.1899 9.35366 4.48733 9.32643 4.65256 9.61158C4.802 9.87093 4.72584 10.1933 4.36519 10.4025C4.01029 10.6074 3.68125 10.5286 3.68125 10.5286L3.6755 10.0973L3.67694 10.0988Z" fill="#231F20"/>
<path d="M4.99589 7.99795C5.37809 7.77729 5.68127 7.86899 5.68127 7.86899L5.70569 8.31319C5.70569 8.31319 5.47723 8.25731 5.26171 8.38053C5.00163 8.52956 4.97433 8.77028 5.08497 8.96086C5.19561 9.15143 5.42694 9.25603 5.6827 9.10844C5.91979 8.97232 5.95714 8.72156 5.95714 8.72156L6.35515 8.9408C6.35515 8.9408 6.29337 9.29472 5.87955 9.53258C5.39533 9.81199 4.88669 9.67587 4.62949 9.23167C4.3766 8.79464 4.51598 8.2745 4.99445 7.99938L4.99589 7.99795Z" fill="#231F20"/>
<path d="M6.47583 7.14688C6.95431 6.87176 7.46296 7.01219 7.71297 7.44349C7.96873 7.88482 7.84229 8.40352 7.36381 8.67864C6.88534 8.95375 6.37238 8.80473 6.11662 8.3634C5.86661 7.9321 5.9988 7.42199 6.47727 7.14688H6.47583ZM7.13248 8.28316C7.32789 8.16996 7.38105 7.9364 7.24886 7.71C7.12386 7.49507 6.89827 7.43059 6.70286 7.54379C6.50744 7.65699 6.44997 7.88338 6.57498 8.09832C6.70573 8.32472 6.93563 8.39636 7.13104 8.28459L7.13248 8.28316Z" fill="#231F20"/>
<path d="M7.50195 6.58961L7.95025 6.33169L8.47183 7.23154C8.55373 7.37197 8.67299 7.39776 8.80231 7.32325C8.92875 7.25017 8.96899 7.13267 8.88708 6.99225L8.36694 6.09239L8.81524 5.83447L9.35119 6.76155C9.54804 7.10115 9.42303 7.49376 9.02646 7.72303C8.62989 7.95229 8.23475 7.85915 8.0379 7.51812L7.50195 6.59104V6.58961Z" fill="#231F20"/>
<path d="M9.65577 5.85754L9.21322 6.11259L8.99194 5.73144L10.3253 4.96484L10.5466 5.34599L10.1041 5.60105L10.742 6.70151L10.2952 6.95943L9.65721 5.85897L9.65577 5.85754Z" fill="#231F20"/>
<path d="M10.5193 4.85167L10.9676 4.59375L11.8254 6.07679L11.3756 6.33471L10.5178 4.85167H10.5193Z" fill="#231F20"/>
<path d="M11.2693 4.42047L11.6974 4.17401L12.4159 4.57092C12.5366 4.63684 12.653 4.73571 12.653 4.73571L12.6616 4.73141C12.6616 4.73141 12.5682 4.60818 12.5136 4.51504L12.1615 3.90749L12.5955 3.65674L13.4533 5.13978L13.0165 5.39054L12.2794 4.9664C12.173 4.90909 12.0437 4.80305 12.0437 4.80305L12.0351 4.80735C12.0351 4.80735 12.1271 4.92771 12.1817 5.02228L12.5495 5.65849L12.1256 5.90208L11.2678 4.41904L11.2693 4.42047Z" fill="#231F20"/>
<path d="M13.6258 3.03033C14.0108 2.80823 14.3126 2.88561 14.3126 2.88561L14.3255 3.3341C14.3255 3.3341 14.1128 3.27679 13.8901 3.40575C13.6114 3.56623 13.597 3.80123 13.7091 3.99323C13.8398 4.21963 14.0827 4.29414 14.3097 4.16375C14.4491 4.08351 14.5152 3.94881 14.5195 3.92159L14.4807 3.85568L14.291 3.96457L14.1057 3.64504L14.6675 3.32121L15.1531 4.15945L14.7954 4.36578L14.758 4.3013C14.7451 4.27838 14.735 4.25689 14.735 4.25115L14.7264 4.25545C14.7221 4.29127 14.6689 4.47182 14.429 4.60938C14.0252 4.84151 13.5209 4.73117 13.2536 4.26835C13.0022 3.83275 13.13 3.31404 13.6258 3.0289V3.03033Z" fill="#231F20"/>
<path d="M17.452 2.98044L17.9348 3.25842L17.567 5.02231L17.133 4.77155L17.2121 4.45202L16.7738 4.19983L16.5382 4.42909L16.1042 4.17834L17.4535 2.979L17.452 2.98044ZM17.3083 4.07517L17.3787 3.79575C17.4075 3.68829 17.4779 3.49914 17.4779 3.49914L17.4693 3.49485C17.4693 3.49485 17.3399 3.6496 17.2595 3.72841L17.0511 3.92901L17.3069 4.0766L17.3083 4.07517Z" fill="#231F20"/>
<path d="M18.8472 3.78268L19.3372 4.06496L19.1792 4.76995C19.1533 4.88171 19.103 5.04363 19.103 5.04363L19.1116 5.04793C19.1116 5.04793 19.2251 4.92327 19.3113 4.84589L19.8444 4.35727L20.3329 4.63812L19.5843 6.18278L19.1662 5.94205L19.4823 5.30012C19.5384 5.18405 19.6203 5.06226 19.6203 5.06226L19.6116 5.05796C19.6116 5.05796 19.4909 5.18119 19.4047 5.25713L19.0254 5.59959L18.6633 5.39182L18.7696 4.89174C18.7941 4.78141 18.8415 4.61519 18.8415 4.61519L18.8329 4.6109C18.8329 4.6109 18.7653 4.74129 18.6921 4.84732L18.2955 5.44197L17.873 5.19838L18.8429 3.78125L18.8472 3.78268Z" fill="#231F20"/>
<path d="M20.942 4.98926L21.9335 5.56098L21.7266 5.91777L21.1849 5.6054L21.067 5.80887L21.501 6.0582L21.2969 6.41069L20.863 6.15993L20.7394 6.37343L21.3113 6.703L21.1044 7.05979L20.0842 6.4723L20.942 4.99069V4.98926Z" fill="#231F20"/>
<path d="M22.4752 5.87354L23.1218 6.24609C23.448 6.4338 23.5687 6.73757 23.3876 7.04851C23.2899 7.21902 23.1089 7.32792 22.9206 7.33222L22.9178 7.33652C22.9178 7.34655 22.9249 7.401 22.9235 7.47551L22.9077 8.10025L22.4192 7.8194L22.458 7.22189L22.333 7.15024L22.0643 7.6145L21.616 7.35658L22.4738 5.87497L22.4752 5.87354ZM22.6677 6.87943C22.7669 6.93674 22.8603 6.91095 22.9163 6.81351C22.9709 6.72037 22.9652 6.63727 22.8301 6.55989L22.7137 6.49254L22.5341 6.80348L22.6663 6.87943H22.6677Z" fill="#231F20"/>
<path d="M24.1867 6.85791L24.635 7.11583L23.7772 8.59744L23.3289 8.33952L24.1867 6.85791Z" fill="#231F20"/>
<path d="M25.9438 7.83649C26.326 8.05715 26.3979 8.36379 26.3979 8.36379L26.0243 8.60738C26.0243 8.60738 25.9582 8.38099 25.7441 8.25776C25.484 8.10874 25.2628 8.20474 25.1521 8.39532C25.0415 8.58589 25.0674 8.83808 25.3231 8.98567C25.5602 9.12179 25.7973 9.02866 25.7973 9.02866L25.8059 9.48145C25.8059 9.48145 25.4682 9.60468 25.0544 9.36682C24.5702 9.0874 24.4337 8.58159 24.6909 8.1374C24.9438 7.70036 25.4654 7.56137 25.9438 7.83649Z" fill="#231F20"/>
<path d="M27.2313 8.61178L27.7141 8.88977L27.3463 10.6537L26.9123 10.4029L26.9914 10.0834L26.5531 9.83118L26.3175 10.0604L25.8835 9.80968L27.2328 8.61035L27.2313 8.61178ZM27.0876 9.70651L27.158 9.4271C27.1868 9.31963 27.2572 9.13049 27.2572 9.13049L27.2486 9.12619C27.2486 9.12619 27.1192 9.28095 27.0388 9.35975L26.8304 9.56036L27.0862 9.70795L27.0876 9.70651Z" fill="#231F20"/>
<path d="M3.97719 25.4053L4.40537 25.6517L4.41974 26.4699C4.42262 26.6075 4.39531 26.7565 4.39531 26.7565L4.40394 26.7608C4.40394 26.7608 4.46428 26.6189 4.51745 26.5258L4.86948 25.9182L5.30341 26.169L4.44561 27.6506L4.0088 27.3999V26.5516C4.00736 26.4312 4.03323 26.2664 4.03323 26.2664L4.02461 26.2621C4.02461 26.2621 3.96569 26.4026 3.91109 26.4957L3.54326 27.1319L3.11938 26.8883L3.97719 25.4067V25.4053Z" fill="white"/>
<path d="M5.9515 26.5415L6.43285 26.8195L6.06502 28.5834L5.63109 28.3341L5.71011 28.0145L5.27187 27.7623L5.03623 27.9916L4.60229 27.7408L5.9515 26.5415ZM5.80782 27.6362L5.87823 27.3568C5.90696 27.2494 5.97737 27.0602 5.97737 27.0602L5.96875 27.0559C5.96875 27.0559 5.83943 27.2107 5.75897 27.288L5.55062 27.4886L5.80638 27.6362H5.80782Z" fill="white"/>
<path d="M7.04202 27.6782L6.59947 27.4231L6.82074 27.042L8.15271 27.81L7.93143 28.1912L7.48888 27.9361L6.85092 29.0366L6.40405 28.7787L7.04202 27.6782Z" fill="white"/>
<path d="M8.34804 27.9214L8.79634 28.1793L7.93853 29.6609L7.49023 29.4015L8.34804 27.9199V27.9214Z" fill="white"/>
<path d="M9.83955 28.7484C10.318 29.0236 10.4488 29.5337 10.1988 29.965C9.943 30.4063 9.43005 30.5553 8.95157 30.2802C8.4731 30.0051 8.34665 29.4864 8.60241 29.045C8.85243 28.6137 9.36108 28.4733 9.83811 28.7484H9.83955ZM9.18147 29.8833C9.37688 29.9965 9.60678 29.9234 9.73753 29.6984C9.86254 29.4835 9.80506 29.2557 9.60965 29.1439C9.41424 29.0307 9.18865 29.0952 9.06365 29.3101C8.93289 29.5365 8.98462 29.7701 9.18003 29.8833H9.18147Z" fill="white"/>
<path d="M10.8468 29.3604L11.275 29.6068L11.2894 30.425C11.2922 30.5625 11.2649 30.7116 11.2649 30.7116L11.2736 30.7159C11.2736 30.7159 11.3339 30.574 11.3871 30.4809L11.7391 29.8733L12.173 30.1241L11.3152 31.6057L10.8784 31.3549V30.5067C10.877 30.3863 10.9029 30.2215 10.9029 30.2215L10.8942 30.2172C10.8942 30.2172 10.8353 30.3576 10.7807 30.4508L10.4129 31.087L9.98901 30.8434L10.8468 29.3618V29.3604Z" fill="white"/>
<path d="M12.8224 30.498L13.3052 30.776L12.9373 32.5399L12.5034 32.2891L12.5824 31.9696L12.1442 31.7174L11.9085 31.9467L11.4746 31.6959L12.8238 30.4966L12.8224 30.498ZM12.6787 31.5927L12.7491 31.3133C12.7778 31.2059 12.8482 31.0167 12.8482 31.0167L12.8396 31.0124C12.8396 31.0124 12.7103 31.1672 12.6298 31.2446L12.4215 31.4452L12.6773 31.5927H12.6787Z" fill="white"/>
<path d="M13.9503 31.147L14.3986 31.4063L13.7578 32.5125L14.3397 32.8478L14.1228 33.2232L13.0925 32.63L13.9503 31.1484V31.147Z" fill="white"/>
<path d="M16.4046 32.806L16.8227 32.5653L16.8859 32.6756C16.9247 32.7415 16.9851 32.7902 17.0626 32.7458C17.1244 32.71 17.1359 32.6484 17.0914 32.571L16.7279 31.9434L16.3471 32.1626L16.1301 31.7872L16.9592 31.3101L17.5541 32.336C17.7423 32.6613 17.5627 32.9722 17.2997 33.1241C17.0296 33.2803 16.6718 33.2703 16.485 32.9464L16.4046 32.8074V32.806Z" fill="white"/>
<path d="M17.5828 30.9503L18.0655 30.6724L19.4148 31.8717L18.9808 32.1225L18.7437 31.8946L18.3055 32.1468L18.3874 32.4649L17.9535 32.7157L17.5856 30.9503H17.5828ZM18.4621 31.6224L18.2538 31.4218C18.1747 31.343 18.0454 31.1882 18.0454 31.1882L18.0368 31.1925C18.0368 31.1925 18.1072 31.3816 18.1345 31.4905L18.2049 31.77L18.4607 31.6224H18.4621Z" fill="white"/>
<path d="M18.7739 30.2642L19.2653 29.9819L19.7984 30.4719C19.8832 30.5507 19.9996 30.674 19.9996 30.674L20.0082 30.6697C20.0082 30.6697 19.9565 30.5092 19.932 30.396L19.774 29.691L20.2625 29.4102L21.231 30.8287L20.8128 31.0694L20.4134 30.4748C20.3401 30.3673 20.2754 30.2369 20.2754 30.2369L20.2668 30.2412C20.2668 30.2412 20.3128 30.4075 20.3358 30.5192L20.445 31.0179L20.0829 31.2256L19.7021 30.8832C19.6188 30.8072 19.4981 30.6826 19.4981 30.6826L19.4895 30.6869C19.4895 30.6869 19.5685 30.8101 19.626 30.9262L19.9435 31.5667L19.5211 31.8103L18.7754 30.2627L18.7739 30.2642Z" fill="white"/>
<path d="M20.6245 29.1996L21.2539 28.8371C21.5484 28.6666 21.8315 28.6809 21.9795 28.936C22.0513 29.0606 22.0599 29.224 21.9795 29.3573L21.9823 29.3616C22.1864 29.3128 22.3387 29.4275 22.4148 29.5579C22.6016 29.8817 22.4019 30.1539 22.1088 30.323L21.4823 30.6827L20.6245 29.1996ZM21.5398 29.4332C21.6145 29.3902 21.6203 29.3128 21.5786 29.2426C21.5384 29.1738 21.4737 29.1481 21.3932 29.1953L21.2539 29.2756L21.3947 29.5177L21.5398 29.4346V29.4332ZM21.8875 30.0121C21.9838 29.9576 21.9867 29.8659 21.9435 29.7943C21.9004 29.7198 21.8229 29.6811 21.7295 29.7355L21.5714 29.8272L21.7309 30.1024L21.8861 30.0121H21.8875Z" fill="white"/>
<path d="M22.7542 27.9398C23.2326 27.6647 23.7413 27.8052 23.9913 28.2365C24.2471 28.6778 24.1206 29.1965 23.6421 29.4716C23.1637 29.7467 22.6507 29.5977 22.3949 29.1564C22.1449 28.7251 22.2771 28.215 22.7556 27.9398H22.7542ZM23.4122 29.0761C23.6076 28.9629 23.6608 28.7294 23.5301 28.503C23.4051 28.288 23.1795 28.2236 22.9841 28.3368C22.7886 28.45 22.7312 28.6764 22.8562 28.8913C22.9869 29.1177 23.2168 29.1893 23.4122 29.0761Z" fill="white"/>
<path d="M23.7886 27.3768L24.4352 27.0042C24.7613 26.8165 25.0861 26.8638 25.2657 27.1748C25.3648 27.3453 25.3691 27.5545 25.2786 27.7207L25.2815 27.725C25.2901 27.7307 25.3418 27.7508 25.405 27.7895L25.9396 28.1147L25.451 28.3956L24.951 28.0646L24.826 28.1362L25.0947 28.6005L24.6464 28.8584L23.7886 27.3754V27.3768ZM24.7599 27.7135C24.859 27.6562 24.8835 27.5631 24.826 27.4656C24.7714 27.3725 24.6981 27.3352 24.563 27.4126L24.4467 27.48L24.6263 27.7909L24.7599 27.7135Z" fill="white"/>
<path d="M25.2498 26.5356L26.2412 25.9639L26.4481 26.3207L25.905 26.633L26.0228 26.8365L26.4567 26.5857L26.6608 26.9382L26.2268 27.189L26.3504 27.4025L26.9223 27.0729L27.1292 27.4297L26.109 28.0172L25.2512 26.5342L25.2498 26.5356Z" fill="white"/>
<path d="M26.5115 25.8105L27.5029 25.2388L27.7098 25.5956L27.1667 25.9079L27.2845 26.1114L27.7184 25.8606L27.9225 26.2131L27.4885 26.4639L27.6121 26.6774L28.184 26.3478L28.3909 26.7046L27.3693 27.2921L26.5115 25.8091V25.8105Z" fill="white"/>
<path d="M7.36113 25.3679V25.2318C7.36113 24.7747 7.58528 24.4509 8.10974 24.1514C8.39567 23.9866 8.41866 23.9623 8.41866 23.9078C8.41866 23.8677 8.41866 23.8261 8.30371 23.8261C8.2175 23.8261 8.1787 23.8491 8.16003 23.9866L8.14709 24.0798H7.35107L7.35826 23.9651C7.39131 23.4866 7.76345 23.1899 8.33245 23.1899C8.90144 23.1899 9.27215 23.4751 9.27215 23.915C9.27215 24.2732 9.08105 24.4337 8.68017 24.6429C8.63275 24.6673 8.59108 24.6902 8.55516 24.7102H9.36411L9.25635 25.3694H7.3597L7.36113 25.3679Z" fill="#DA2128"/>
<path d="M8.33238 23.2975C8.83672 23.2975 9.16432 23.5339 9.16432 23.915C9.16432 24.2102 9.01776 24.3463 8.62981 24.5469C8.42578 24.653 8.28209 24.7447 8.2318 24.8178H9.2376L9.16432 25.262H7.46739V25.2333C7.46739 24.8564 7.62113 24.5555 8.16139 24.246C8.45595 24.0755 8.52348 24.0325 8.52348 23.9093C8.52348 23.7961 8.46026 23.7202 8.30077 23.7202C8.11972 23.7202 8.06943 23.8348 8.04932 23.9738H7.46308C7.49038 23.5797 7.78206 23.2989 8.32951 23.2989M8.33238 23.0825C7.7016 23.0825 7.28635 23.4178 7.25042 23.958L7.23462 24.1873H7.84959C7.43434 24.4753 7.2533 24.7963 7.2533 25.2319V25.4755H9.34824L9.37841 25.2949L9.45169 24.8507L9.49192 24.6014H8.97034C9.20886 24.4481 9.38129 24.2575 9.38129 23.915C9.38129 23.4178 8.96029 23.0825 8.33382 23.0825H8.33238Z" fill="white"/>
<path d="M11.0968 26.3666C10.4502 26.3666 10.0637 25.951 10.0637 25.2546C10.0637 24.5582 10.4603 24.1484 11.0983 24.1484C11.8081 24.1484 12.1242 24.6972 12.1242 25.2403C12.1242 25.9567 11.7492 26.3666 11.0968 26.3666ZM11.1011 24.7846C11.048 24.7846 10.9258 24.7846 10.9258 25.2475C10.9258 25.7103 11.0508 25.7275 11.0968 25.7275C11.1816 25.7275 11.2606 25.6687 11.2606 25.2403C11.2606 24.8391 11.183 24.7846 11.1011 24.7846Z" fill="#DA2128"/>
<path d="M11.0969 24.2545C11.7119 24.2545 12.015 24.7101 12.015 25.2389C12.015 25.8135 11.7607 26.2577 11.0955 26.2577C10.4302 26.2577 10.1701 25.8077 10.1701 25.2532C10.1701 24.6987 10.4532 24.2545 11.0969 24.2545ZM11.0969 25.835C11.3297 25.835 11.3685 25.5727 11.3685 25.2403C11.3685 24.9595 11.3383 24.6772 11.1012 24.6772C10.8641 24.6772 10.8181 24.9394 10.8181 25.2475C10.8181 25.5556 10.8641 25.835 11.0969 25.835ZM11.0969 24.0396C10.3928 24.0396 9.95459 24.5052 9.95459 25.2532C9.95459 26.0012 10.3914 26.4726 11.0955 26.4726C11.7995 26.4726 12.2306 26.0112 12.2306 25.2389C12.2306 24.521 11.7751 24.0396 11.0969 24.0396ZM11.0911 24.8921C11.0911 24.8921 11.0955 24.8921 11.1012 24.8921C11.1026 24.8921 11.1055 24.8921 11.1055 24.8921C11.1199 24.9107 11.1529 24.981 11.1529 25.2403C11.1529 25.5255 11.1184 25.6 11.1026 25.62C11.1012 25.62 11.0983 25.62 11.0969 25.62C11.0911 25.62 11.0883 25.62 11.0883 25.62C11.0883 25.62 11.0337 25.5656 11.0337 25.2475C11.0337 24.958 11.084 24.8993 11.0911 24.8921Z" fill="white"/>
<path d="M19.1275 26.325V26.1888C19.1275 25.7318 19.3516 25.4079 19.8761 25.1084C20.162 24.9437 20.185 24.9193 20.185 24.8649C20.185 24.8247 20.185 24.7832 20.0701 24.7832C19.9839 24.7832 19.9451 24.8061 19.9264 24.9437L19.9135 25.0368H19.1174L19.1246 24.9222C19.1577 24.4436 19.5298 24.147 20.0988 24.147C20.6678 24.147 21.0385 24.4321 21.0385 24.872C21.0385 25.2302 20.8474 25.3907 20.4465 25.5999C20.3991 25.6243 20.3574 25.6472 20.3215 25.6673H21.1305L21.0227 26.3264H19.1261L19.1275 26.325Z" fill="#DA2128"/>
<path d="M20.0987 24.2545C20.6031 24.2545 20.9307 24.4909 20.9307 24.8721C20.9307 25.1672 20.7841 25.3034 20.3962 25.504C20.1921 25.61 20.0484 25.7017 19.9982 25.7733H21.004L20.9307 26.2175H19.2337V26.1889C19.2337 25.812 19.3875 25.5111 19.9277 25.2016C20.2223 25.0311 20.2898 24.9881 20.2898 24.8649C20.2898 24.7517 20.2281 24.6758 20.0671 24.6758C19.8861 24.6758 19.8358 24.7904 19.8157 24.9294H19.2294C19.2567 24.5353 19.5484 24.2545 20.0959 24.2545M20.0987 24.0396C19.468 24.0396 19.0527 24.3748 19.0168 24.915L19.001 25.1443H19.616C19.2007 25.4323 19.0197 25.7533 19.0197 26.1889V26.4325H21.1146L21.1448 26.2519L21.218 25.8077L21.2583 25.5584H20.7367C20.9752 25.4051 21.1462 25.2145 21.1462 24.8721C21.1462 24.3748 20.7252 24.0396 20.0987 24.0396Z" fill="white"/>
<path d="M22.8718 25.4095C22.2094 25.4095 21.8301 25.0097 21.8301 24.3147C21.8301 23.7702 22.1074 23.1885 22.8847 23.1885C23.5026 23.1885 23.7698 23.5166 23.8129 23.8247L23.8302 23.9465H23.5213C23.7497 24.0697 23.8905 24.2947 23.8905 24.5727C23.8905 25.0799 23.4911 25.4095 22.8718 25.4095ZM22.8603 24.4595C22.787 24.4595 22.7008 24.4824 22.7008 24.5941C22.7008 24.6472 22.7166 24.7718 22.8689 24.7718C22.9709 24.7718 23.0313 24.7131 23.0313 24.6156C23.0313 24.5053 22.9824 24.4609 22.8603 24.4609V24.4595ZM22.8646 23.8132C22.833 23.8132 22.7712 23.8132 22.7296 23.8935C22.8043 23.8677 22.8876 23.8519 22.9796 23.8447C22.9638 23.8275 22.9336 23.8132 22.8632 23.8132H22.8646Z" fill="#DA2128"/>
<path d="M22.8848 23.296C23.4653 23.296 23.6722 23.5955 23.7067 23.8391H23.0989C23.0702 23.7617 23.0113 23.7058 22.8662 23.7058C22.6736 23.7058 22.5903 23.8605 22.5802 24.0998C22.688 24.0096 22.8417 23.9494 23.0774 23.9494C23.4811 23.9494 23.7829 24.1829 23.7829 24.5727C23.7829 25.0699 23.3547 25.302 22.8719 25.302C22.277 25.302 21.9379 24.961 21.9379 24.3148C21.9379 23.7889 22.1951 23.296 22.8848 23.296ZM22.869 24.8779C23.0285 24.8779 23.1392 24.7733 23.1392 24.6142C23.1392 24.4552 23.0558 24.352 22.8604 24.352C22.6909 24.352 22.5931 24.4509 22.5931 24.5942C22.5931 24.7217 22.6636 24.8793 22.869 24.8793M22.8848 23.0811C22.1678 23.0811 21.7224 23.5539 21.7224 24.3148C21.7224 25.0756 22.152 25.517 22.8719 25.517C23.5458 25.517 23.9984 25.1373 23.9984 24.5727C23.9984 24.3707 23.9352 24.193 23.8217 24.054H23.9553L23.9208 23.809C23.8705 23.4565 23.5731 23.0811 22.8848 23.0811ZM22.869 24.663C22.8389 24.663 22.8087 24.663 22.8087 24.5928C22.8087 24.5784 22.8116 24.5741 22.8116 24.5741C22.813 24.5741 22.8288 24.5655 22.8604 24.5655C22.9006 24.5655 22.9164 24.5727 22.9193 24.5741C22.9193 24.5741 22.9236 24.587 22.9236 24.6128C22.9236 24.6429 22.9193 24.6615 22.869 24.6615V24.663Z" fill="white"/>
<path d="M28.8062 16.0872C28.8062 15.5714 28.3852 15.153 27.8694 15.153H26.1035C25.9368 14.8936 25.6451 14.7202 25.3147 14.7202H21.4452C21.2742 14.4537 20.9768 14.2832 20.6506 14.2832H19.9308C19.9379 14.0854 19.8833 13.8877 19.7684 13.7201C19.5945 13.4693 19.3072 13.3188 19.0011 13.3188H12.1272C11.8211 13.3188 11.5352 13.4679 11.3613 13.7172C11.2435 13.8863 11.1889 14.0869 11.1975 14.2861H8.84971C8.5178 14.2861 8.22755 14.4594 8.06087 14.7188H6.01335C5.68144 14.7188 5.39119 14.8922 5.22452 15.1515H3.37384C2.85657 15.1515 2.43701 15.5714 2.43701 16.0858V20.3028C2.43701 20.8186 2.85801 21.3144 3.37384 21.3144H5.22452C5.39119 21.5737 5.68287 21.7471 6.01335 21.7471H8.06087C8.22755 22.0065 8.51923 22.1799 8.84971 22.1799L14.0914 22.1756L14.225 22.5352C14.3615 22.902 14.7178 23.1485 15.1101 23.1485H15.9679C16.3573 23.1485 16.7122 22.9049 16.8516 22.5409L16.9895 22.1756L22.9007 22.1842C23.2054 22.1842 23.4927 22.0351 23.6666 21.7858C23.6752 21.7729 23.6824 21.76 23.691 21.7471H24.2686C24.6638 21.7471 25.0014 21.5021 25.1394 21.1553C25.2888 21.2556 25.4684 21.3144 25.6624 21.3144H27.8737C28.391 21.3144 28.7488 20.9361 28.812 20.3801V16.0872H28.8062Z" fill="#231F20"/>
<path d="M4.20007 16.805V17.7578H5.54641V18.4929H4.20007V19.6636H5.59813V20.3987H3.35376V16.0728H5.59813V16.8078H4.20007V16.805Z" fill="white"/>
<path d="M7.00902 19.9474H8.44444V20.8286H5.99316V15.6372H7.00759V19.9474H7.00902Z" fill="white"/>
<path d="M10.015 16.2335V17.5675H11.9002V18.5963H10.015V20.2355H11.972V21.2644H8.83105V15.2075H11.972V16.2363H10.015V16.2335Z" fill="white"/>
<path d="M19.1694 20.0237L18.6808 21.2717H17.4609L19.7757 15.1948H20.6738L22.9253 21.2717H21.6896L21.2327 20.0237H19.1694ZM20.1694 16.9301H20.1536L19.4998 19.0808H20.9094L20.1694 16.9301Z" fill="white"/>
<path d="M24.2816 20.8286H23.2672V16.5184H22.2183V15.6372H25.3319V16.5184H24.283V20.8286H24.2816Z" fill="white"/>
<path d="M26.4886 16.805V17.7578H27.835V18.4929H26.4886V19.6636H27.8867V20.3987H25.6423V16.0728H27.8867V16.8078H26.4886V16.805Z" fill="white"/>
<path d="M15.6203 19.4831H15.6404L17.3805 14.2373H19.0171L15.9824 22.23H15.0916L12.1086 14.2373H13.7452L15.6203 19.4831Z" fill="white"/>
<path d="M13.7452 14.452C13.6748 14.452 13.6101 14.4176 13.5685 14.3603C13.5282 14.303 13.5182 14.2299 13.5412 14.164L15.4163 8.91819C15.4464 8.83365 15.5269 8.77634 15.616 8.7749H15.639C15.7324 8.7749 15.8143 8.83365 15.843 8.92249L17.5831 14.1683C17.6046 14.2342 17.5931 14.3059 17.5529 14.3618C17.5126 14.4176 17.448 14.4506 17.3776 14.4506H13.7423L13.7452 14.452Z" fill="#DA2128"/>
<path d="M15.6404 8.99139L17.3804 14.2372H13.7452L15.6203 8.99139H15.6404ZM15.6404 8.56152C15.6404 8.56152 15.6361 8.56152 15.6332 8.56152H15.6131C15.4335 8.56439 15.274 8.67902 15.2136 8.84667L13.3385 14.0925C13.2911 14.2243 13.3112 14.3705 13.3917 14.4851C13.4721 14.5997 13.6043 14.6671 13.7437 14.6671H17.379C17.5169 14.6671 17.6477 14.6012 17.7281 14.4894C17.8086 14.3776 17.8316 14.2343 17.7885 14.1025L16.0484 8.8567C15.9895 8.68045 15.8243 8.56152 15.6389 8.56152H15.6404Z" fill="#231F20"/>
<path d="M15.6201 19.4831H15.6402L17.3802 14.2373H19.0168L15.9822 22.23H15.0913L12.1084 14.2373H13.745L15.6201 19.4831Z" fill="white"/>
<path d="M15.6202 19.4831H15.6403L17.3804 14.2373H13.7451L15.6202 19.4831Z" fill="#6D6E71"/>
<path d="M15.6317 15.0442C16.0777 15.0442 16.4392 14.6836 16.4392 14.2389C16.4392 13.7941 16.0777 13.4336 15.6317 13.4336C15.1858 13.4336 14.8242 13.7941 14.8242 14.2389C14.8242 14.6836 15.1858 15.0442 15.6317 15.0442Z" fill="white"/>
<path d="M17.8214 26.5256C17.5699 26.1673 17.0153 26.1229 16.5814 26.4267C16.5196 26.4697 16.465 26.5184 16.4147 26.5686C16.419 26.484 16.4233 26.398 16.4233 26.3106C16.4233 25.6372 15.6316 24.4751 15.6316 24.4751C15.6316 24.4751 14.8399 25.6372 14.8399 26.3106C14.8399 26.398 14.8428 26.484 14.8485 26.5686C14.7982 26.517 14.7436 26.4697 14.6819 26.4267C14.2479 26.1244 13.6919 26.1673 13.4419 26.5256C13.1904 26.8838 13.3384 27.4183 13.7723 27.722C13.837 27.7679 13.9045 27.8051 13.9735 27.8338C13.9764 27.51 14.1186 27.2492 14.3341 27.2119C14.5971 27.1661 14.8701 27.4698 14.9448 27.8897C14.9606 27.98 14.9649 28.0674 14.962 28.1505C14.8701 28.1634 14.8026 28.2121 14.8026 28.2694C14.8026 28.3267 14.873 28.3769 14.9678 28.3883C14.962 28.4528 14.9376 28.5073 14.8931 28.5416C14.7796 28.6305 14.577 28.566 14.4031 28.3998C14.3931 28.4113 14.383 28.4242 14.3744 28.437C14.2149 28.6634 14.235 28.9529 14.4189 29.0804C14.6028 29.2094 14.8816 29.1291 15.0411 28.9027C15.0741 28.8555 15.0985 28.8053 15.1158 28.7537C15.2307 29.3211 15.5339 29.7324 15.6287 29.7324C15.7236 29.7324 16.0268 29.3211 16.1417 28.7537C16.1589 28.8039 16.1834 28.854 16.2164 28.9027C16.3759 29.1291 16.6547 29.2094 16.8386 29.0804C17.0225 28.9515 17.0426 28.6634 16.8831 28.437C16.8745 28.4242 16.8644 28.4113 16.8544 28.3998C16.682 28.566 16.4779 28.6305 16.3644 28.5416C16.3199 28.5073 16.2969 28.4542 16.2897 28.3883C16.3845 28.3754 16.4549 28.3267 16.4549 28.2694C16.4549 28.2121 16.3874 28.1648 16.2955 28.1505C16.2911 28.0674 16.2955 27.98 16.3127 27.8897C16.3874 27.4684 16.6604 27.1646 16.9234 27.2119C17.1389 27.2492 17.2797 27.51 17.284 27.8338C17.353 27.8037 17.4205 27.7665 17.4852 27.722C17.9191 27.4197 18.0671 26.8838 17.8156 26.5256" fill="#231F20"/>
<path d="M30.3264 28.0532V28.1693H30.1008V28.7553H29.9614V28.1693H29.7358V28.0532H30.3264ZM31.0865 28.7553L31.0606 28.3427C31.0577 28.2882 31.0578 28.2209 31.0549 28.1464H31.0477C31.029 28.208 31.0089 28.2911 30.9888 28.3556L30.8623 28.7453H30.7172L30.5908 28.3455C30.5778 28.2911 30.5577 28.2094 30.5419 28.1464H30.5347C30.5347 28.2108 30.5319 28.2782 30.529 28.3427L30.5031 28.7553H30.3681L30.4198 28.0532H30.6296L30.7517 28.3957C30.7675 28.4501 30.7804 28.5017 30.7977 28.5734H30.8006C30.8192 28.5089 30.8336 28.4501 30.8494 28.3986L30.9715 28.0532H31.1727L31.2273 28.7553H31.0879H31.0865Z" fill="#231F20"/>
</g>
<defs>
<clipPath id="clip0_1891_4794">
<rect width="31.2632" height="36" fill="white"/>
</clipPath>
</defs>
</svg>
