<svg width="18" height="18" viewBox="0 0 18 18" fill="none" xmlns="http://www.w3.org/2000/svg">
<path d="M16.1479 15.3522L12.6274 11.8323C13.6478 10.6073 14.1566 9.03601 14.048 7.44536C13.9394 5.85472 13.2218 4.36717 12.0443 3.29217C10.8669 2.21718 9.32035 1.6375 7.72641 1.67372C6.13247 1.70995 4.61386 2.35929 3.48648 3.48666C2.3591 4.61404 1.70976 6.13265 1.67354 7.72659C1.63731 9.32053 2.21699 10.8671 3.29199 12.0445C4.36699 13.2219 5.85453 13.9396 7.44518 14.0482C9.03583 14.1568 10.6071 13.648 11.8322 12.6276L15.352 16.1481C15.4043 16.2004 15.4663 16.2418 15.5346 16.2701C15.6029 16.2984 15.6761 16.313 15.75 16.313C15.8239 16.313 15.8971 16.2984 15.9654 16.2701C16.0336 16.2418 16.0957 16.2004 16.1479 16.1481C16.2002 16.0959 16.2417 16.0338 16.2699 15.9655C16.2982 15.8973 16.3128 15.8241 16.3128 15.7502C16.3128 15.6763 16.2982 15.6031 16.2699 15.5348C16.2417 15.4665 16.2002 15.4045 16.1479 15.3522ZM2.81248 7.87516C2.81248 6.87389 3.10939 5.89511 3.66566 5.06259C4.22194 4.23006 5.01259 3.58119 5.93764 3.19802C6.86269 2.81485 7.88059 2.7146 8.86262 2.90993C9.84465 3.10527 10.7467 3.58743 11.4547 4.29543C12.1627 5.00344 12.6449 5.90549 12.8402 6.88752C13.0355 7.86954 12.9353 8.88744 12.5521 9.8125C12.169 10.7375 11.5201 11.5282 10.6876 12.0845C9.85503 12.6408 8.87625 12.9377 7.87498 12.9377C6.53278 12.9362 5.24597 12.4023 4.29689 11.4532C3.34781 10.5042 2.81397 9.21736 2.81248 7.87516Z" fill="#727272"/>
</svg>
